<?xml version="1.0" encoding="utf-8"?>
<!-- Generator: Adobe Illustrator 25.2.1, SVG Export Plug-In . SVG Version: 6.00 Build 0)  -->
<svg version="1.1" id="Layer_1" xmlns="http://www.w3.org/2000/svg" xmlns:xlink="http://www.w3.org/1999/xlink" x="0px" y="0px"
	 viewBox="0 0 100 100" style="enable-background:new 0 0 100 100;" xml:space="preserve">
<g>
	<path d="M94.45,51.54C93.4,48.78,90.8,47,87.85,47c-1.6,0-3.17,0.55-4.42,1.55L64.07,64.04c0-0.01,0-0.03,0-0.04c0-3.86-3.14-7-7-7
		h-11.4c-8.19-5.28-20.97-5.27-29.17,0h-4.43c-3.86,0-7,3.14-7,7v24c0,3.86,3.14,7,7,7s7-3.14,7-7v-1h40.46
		c1.49,0,2.91-0.55,4.01-1.54l29.03-26.13C94.78,57.36,95.51,54.3,94.45,51.54z M15.07,88c0,1.65-1.35,3-3,3s-3-1.35-3-3V64
		c0-1.65,1.35-3,3-3h3v8v16V88z M89.9,56.36L60.87,82.49C60.51,82.82,60.03,83,59.53,83H19.07V69v-8.91
		c7.14-4.32,18.05-4.14,24.86,0.56c0.33,0.23,0.73,0.35,1.14,0.35h12c1.65,0,3,1.35,3,3s-1.35,3-3,3h-12c-1.1,0-2,0.9-2,2s0.9,2,2,2
		h16c0.45,0,0.89-0.15,1.25-0.44l23.61-18.89c0.54-0.43,1.22-0.67,1.92-0.67c1.96,0,2.69,1.51,2.87,1.97S91.36,55.05,89.9,56.36z"/>
	<path d="M58.07,51c12.68,0,23-10.32,23-23s-10.32-23-23-23s-23,10.32-23,23S45.39,51,58.07,51z M58.07,9c10.48,0,19,8.52,19,19
		s-8.52,19-19,19s-19-8.52-19-19S47.59,9,58.07,9z"/>
	<path d="M58.07,40.99c3.33,0,6.66-1.27,9.19-3.8c0.78-0.78,0.78-2.05,0-2.83c-0.78-0.78-2.05-0.78-2.83,0
		c-3.51,3.51-9.22,3.51-12.73,0c-0.78-0.78-2.05-0.78-2.83,0s-0.78,2.05,0,2.83C51.41,39.73,54.74,40.99,58.07,40.99z"/>
</g>
</svg>
