<svg xmlns="http://www.w3.org/2000/svg" viewBox="0 0 184.25 184.25"><defs><style>.cls-1,.cls-4,.cls-6{fill:#fff;}.cls-1,.cls-3,.cls-4{stroke:#1d1d1b;stroke-width:1.5px;}.cls-1,.cls-3{stroke-miterlimit:10;}.cls-2{fill:#65a5e7;}.cls-3{fill:none;}.cls-4{stroke-linecap:round;stroke-linejoin:round;}.cls-5{fill:#1d1d1b;}</style></defs><title>Artboard 5 copy 34</title><g id="Icons"><rect class="cls-1" x="15.34" y="32.92" width="152.25" height="118.42" rx="4.42" ry="4.42"/><rect class="cls-2" x="24.28" y="58.55" width="133.43" height="83.68"/><rect class="cls-3" x="24.41" y="58.31" width="134.11" height="83.68" rx="0.67" ry="0.67"/><line class="cls-4" x1="83.88" y1="45.75" x2="157.85" y2="45.75"/><circle class="cls-5" cx="27.55" cy="45.61" r="3.13"/><circle class="cls-5" cx="37.53" cy="45.61" r="3.13"/><circle class="cls-5" cx="47.51" cy="45.61" r="3.13"/><rect class="cls-6" x="74.77" y="96.98" width="33.35" height="7.15" rx="3.57" ry="3.57" transform="translate(-41.36 129.48) rotate(-60)"/><path class="cls-6" d="M122.49,100.39l-12.17,12.17a3.57,3.57,0,0,0,.26,5.29,3.7,3.7,0,0,0,4.91-.34l14.07-14.08a4.3,4.3,0,0,0,0-6.08L115.49,83.28a3.69,3.69,0,0,0-4.91-.35,3.57,3.57,0,0,0-.26,5.29l12.17,12.17Z"/><path class="cls-6" d="M59.5,100.39,71.67,88.22a3.57,3.57,0,0,0-.26-5.29,3.67,3.67,0,0,0-4.9.35L52.43,97.35a4.3,4.3,0,0,0,0,6.08l14.08,14.08a3.68,3.68,0,0,0,4.9.34,3.57,3.57,0,0,0,.26-5.29L59.5,100.39Z"/></g></svg>